<svg width="27" height="21" viewBox="0 0 27 21" fill="none" xmlns="http://www.w3.org/2000/svg">
<g clip-path="url(#clip0_4508_491)">
<path d="M6.13638 20.8967V10.1344L2.90113 7.08095L0 5.38647V18.9974C0 20.0483 0.825293 20.8967 1.84096 20.8967H6.13638Z" fill="#4285F4"/>
<path d="M20.8638 20.8966H25.1592C26.1779 20.8966 27.0002 20.045 27.0002 18.9973V5.38647L23.7142 7.32729L20.8638 10.1343V20.8966Z" fill="#34A853"/>
<path d="M6.13652 10.1344L5.69629 5.92925L6.13652 1.90454L13.5001 7.60218L20.8637 1.90454L21.3562 5.71196L20.8637 10.1344L13.5001 15.832L6.13652 10.1344Z" fill="#EA4335"/>
<path d="M20.8638 1.90455V10.1344L27.0002 5.38641V2.85412C27.0002 0.50549 24.4014 -0.833396 22.5821 0.575127L20.8638 1.90455Z" fill="#FBBC04"/>
<path d="M0 5.38646L2.82224 7.57024L6.13638 10.1344V1.9046L4.41809 0.575177C2.59559 -0.833455 0 0.50554 0 2.85406V5.38646Z" fill="#C5221F"/>
</g>
<defs>
<clipPath id="clip0_4508_491">
<rect width="27" height="21" fill="white"/>
</clipPath>
</defs>
</svg>
